<svg width="16" height="16" viewBox="0 0 16 16" fill="none" xmlns="http://www.w3.org/2000/svg">
<g clip-path="url(#clip0_515_104522)">
<path d="M0.46875 8C0.46875 12.1594 3.84059 15.5312 8 15.5312C12.1594 15.5312 15.5312 12.1594 15.5312 8C15.5312 3.84059 12.1594 0.46875 8 0.46875C6.26547 0.46875 4.85938 1.87484 4.85938 3.60938V6.92188H2.98438V4.85938C1.59503 4.85938 0.46875 5.98566 0.46875 7.375V8Z" stroke="white" stroke-miterlimit="10"/>
<path d="M8 13.6562C8.69899 13.6562 9.26562 13.0896 9.26562 12.3906C9.26562 11.6916 8.69899 11.125 8 11.125C7.30101 11.125 6.73438 11.6916 6.73438 12.3906C6.73438 13.0896 7.30101 13.6562 8 13.6562Z" stroke="white" stroke-miterlimit="10"/>
<path d="M8 4.875C8.69899 4.875 9.26562 4.30836 9.26562 3.60938C9.26562 2.91039 8.69899 2.34375 8 2.34375C7.30101 2.34375 6.73438 2.91039 6.73438 3.60938C6.73438 4.30836 7.30101 4.875 8 4.875Z" stroke="white" stroke-miterlimit="10"/>
<path d="M5.46289 10.1953C5.46289 10.8943 4.89627 11.4609 4.19727 11.4609C3.49827 11.4609 2.93164 10.8943 2.93164 10.1953C2.93164 9.49631 3.49827 8.92969 4.19727 8.92969C4.89627 8.92969 5.46289 9.49631 5.46289 10.1953Z" stroke="white" stroke-miterlimit="10"/>
<path d="M11.8027 7.07031C12.5017 7.07031 13.0684 6.50367 13.0684 5.80469C13.0684 5.1057 12.5017 4.53906 11.8027 4.53906C11.1037 4.53906 10.5371 5.1057 10.5371 5.80469C10.5371 6.50367 11.1037 7.07031 11.8027 7.07031Z" stroke="white" stroke-miterlimit="10"/>
<path d="M13.0684 10.1953C13.0684 10.8943 12.5017 11.4609 11.8027 11.4609C11.1037 11.4609 10.5371 10.8943 10.5371 10.1953C10.5371 9.49631 11.1037 8.92969 11.8027 8.92969C12.5017 8.92969 13.0684 9.49631 13.0684 10.1953Z" stroke="white" stroke-miterlimit="10"/>
</g>
<defs>
<clipPath id="clip0_515_104522">
<rect width="16" height="16" fill="white"/>
</clipPath>
</defs>
</svg>
