<svg width="20" height="20" viewBox="0 0 20 20" fill="none" xmlns="http://www.w3.org/2000/svg">
<g clip-path="url(#clip0_492_78105)">
<path d="M7.25 18.25C8.768 18.25 10 17.018 10 15.5V12.75H7.25C5.732 12.75 4.5 13.982 4.5 15.5C4.5 17.018 5.732 18.25 7.25 18.25Z" fill="#0ACF83"/>
<path d="M4.5 10C4.5 8.482 5.732 7.25 7.25 7.25H10V12.75H7.25C5.732 12.75 4.5 11.518 4.5 10Z" fill="#A259FF"/>
<path d="M4.5 4.5C4.5 2.982 5.732 1.75 7.25 1.75H10V7.25H7.25C5.732 7.25 4.5 6.018 4.5 4.5Z" fill="#F24E1E"/>
<path d="M10 1.75H12.75C14.268 1.75 15.5 2.982 15.5 4.5C15.5 6.018 14.268 7.25 12.75 7.25H10V1.75Z" fill="#FF7262"/>
<path d="M15.5 10C15.5 11.518 14.268 12.75 12.75 12.75C11.232 12.75 10 11.518 10 10C10 8.482 11.232 7.25 12.75 7.25C14.268 7.25 15.5 8.482 15.5 10Z" fill="#1ABCFE"/>
</g>
<defs>
<clipPath id="clip0_492_78105">
<rect width="11" height="16.5" fill="white" transform="translate(4.5 1.75)"/>
</clipPath>
</defs>
</svg>
