<svg width="16" height="16" viewBox="0 0 16 16" fill="none" xmlns="http://www.w3.org/2000/svg">
<path d="M2.11133 10.7773C2.72488 10.7775 3.22266 11.2751 3.22266 11.8887C3.22254 12.5021 2.72481 12.9999 2.11133 13C1.49775 13 1.00012 12.5022 1 11.8887C1 11.275 1.49768 10.7773 2.11133 10.7773ZM13.7783 11.332C13.9257 11.332 14.0667 11.3909 14.1709 11.4951C14.2751 11.5993 14.334 11.7404 14.334 11.8877C14.334 12.035 14.2751 12.1761 14.1709 12.2803C14.0667 12.3844 13.9256 12.4434 13.7783 12.4434H4.88965C4.74236 12.4434 4.60125 12.3844 4.49707 12.2803C4.39291 12.1761 4.33401 12.035 4.33398 11.8877C4.33398 11.7404 4.39288 11.5993 4.49707 11.4951C4.60126 11.3909 4.74231 11.332 4.88965 11.332H13.7783ZM2.11133 6.89062C2.72488 6.89074 3.22266 7.38838 3.22266 8.00195C3.22254 8.61543 2.72481 9.11316 2.11133 9.11328C1.49775 9.11328 1.00012 8.6155 1 8.00195C1 7.3883 1.49768 6.89062 2.11133 6.89062ZM13.7783 7.44531C13.9257 7.44531 14.0667 7.50421 14.1709 7.6084C14.2751 7.71259 14.334 7.85363 14.334 8.00098C14.334 8.14828 14.2751 8.28939 14.1709 8.39355C14.0667 8.49767 13.9256 8.55664 13.7783 8.55664H4.88965C4.74236 8.55664 4.60125 8.49767 4.49707 8.39355C4.39291 8.28939 4.33401 8.14828 4.33398 8.00098C4.33398 7.85363 4.39288 7.71259 4.49707 7.6084C4.60126 7.50421 4.74231 7.44531 4.88965 7.44531H13.7783ZM2.11133 3C2.72488 3.00012 3.22266 3.49775 3.22266 4.11133C3.22254 4.72481 2.72481 5.22254 2.11133 5.22266C1.49775 5.22266 1.00012 4.72488 1 4.11133C1 3.49768 1.49768 3 2.11133 3ZM13.7783 3.55469C13.9257 3.55469 14.0667 3.61359 14.1709 3.71777C14.2751 3.82196 14.334 3.96301 14.334 4.11035C14.334 4.25765 14.2751 4.39877 14.1709 4.50293C14.0667 4.60705 13.9256 4.66602 13.7783 4.66602H4.88965C4.74236 4.66602 4.60125 4.60705 4.49707 4.50293C4.39291 4.39877 4.33401 4.25765 4.33398 4.11035C4.33398 3.96301 4.39288 3.82196 4.49707 3.71777C4.60126 3.61359 4.74231 3.55469 4.88965 3.55469H13.7783Z" fill="white"/>
</svg>
