<svg width="16" height="16" viewBox="0 0 16 16" fill="none" xmlns="http://www.w3.org/2000/svg">
<path d="M7.30766 2.88462H13.0577C13.175 2.88462 13.2875 2.83802 13.3704 2.75507C13.4534 2.67212 13.5 2.55961 13.5 2.44231C13.5 2.325 13.4534 2.2125 13.3704 2.12955C13.2875 2.0466 13.175 2 13.0577 2H7.30766C7.19036 2 7.07785 2.0466 6.99491 2.12955C6.91196 2.2125 6.86536 2.325 6.86536 2.44231C6.86536 2.55961 6.91196 2.67212 6.99491 2.75507C7.07785 2.83802 7.19036 2.88462 7.30766 2.88462Z" fill="white"/>
<path d="M7.30754 5.53696H10.846C10.9633 5.53696 11.0758 5.49036 11.1588 5.40741C11.2417 5.32446 11.2883 5.21196 11.2883 5.09465C11.2883 4.97734 11.2417 4.86484 11.1588 4.78189C11.0758 4.69894 10.9633 4.65234 10.846 4.65234H7.30754C7.19023 4.65234 7.07773 4.69894 6.99478 4.78189C6.91183 4.86484 6.86523 4.97734 6.86523 5.09465C6.86523 5.21196 6.91183 5.32446 6.99478 5.40741C7.07773 5.49036 7.19023 5.53696 7.30754 5.53696Z" fill="white"/>
<path d="M13.0575 7.30859H7.30754C7.19023 7.30859 7.07773 7.35519 6.99478 7.43814C6.91183 7.52109 6.86523 7.63359 6.86523 7.7509C6.86523 7.86821 6.91183 7.98071 6.99478 8.06366C7.07773 8.14661 7.19023 8.19321 7.30754 8.19321H13.0575C13.1748 8.19321 13.2874 8.14661 13.3703 8.06366C13.4532 7.98071 13.4998 7.86821 13.4998 7.7509C13.4998 7.63359 13.4532 7.52109 13.3703 7.43814C13.2874 7.35519 13.1748 7.30859 13.0575 7.30859Z" fill="white"/>
<path d="M7.30754 10.8456H10.846C10.9633 10.8456 11.0758 10.799 11.1588 10.716C11.2417 10.6331 11.2883 10.5206 11.2883 10.4032C11.2883 10.2859 11.2417 10.1734 11.1588 10.0905C11.0758 10.0075 10.9633 9.96094 10.846 9.96094H7.30754C7.19023 9.96094 7.07773 10.0075 6.99478 10.0905C6.91183 10.1734 6.86523 10.2859 6.86523 10.4032C6.86523 10.5206 6.91183 10.6331 6.99478 10.716C7.07773 10.799 7.19023 10.8456 7.30754 10.8456Z" fill="white"/>
<path d="M13.0575 12.6172H7.30754C7.19023 12.6172 7.07773 12.6638 6.99478 12.7467C6.91183 12.8297 6.86523 12.9422 6.86523 13.0595C6.86523 13.1768 6.91183 13.2893 6.99478 13.3723C7.07773 13.4552 7.19023 13.5018 7.30754 13.5018H13.0575C13.1748 13.5018 13.2874 13.4552 13.3703 13.3723C13.4532 13.2893 13.4998 13.1768 13.4998 13.0595C13.4998 12.9422 13.4532 12.8297 13.3703 12.7467C13.2874 12.6638 13.1748 12.6172 13.0575 12.6172Z" fill="white"/>
<path d="M2.88457 6.42308C2.76726 6.42308 2.65476 6.46968 2.57181 6.55263C2.48886 6.63557 2.44226 6.74808 2.44226 6.86539C2.44226 6.98269 2.48886 7.09519 2.57181 7.17814C2.65476 7.26109 2.76726 7.30769 2.88457 7.30769H4.6538C4.77111 7.30769 4.88361 7.26109 4.96656 7.17814C5.04951 7.09519 5.09611 6.98269 5.09611 6.86539C5.09611 6.74808 5.04951 6.63557 4.96656 6.55263C4.88361 6.46968 4.77111 6.42308 4.6538 6.42308H4.21149V2.88462C4.21122 2.65008 4.11794 2.42523 3.9521 2.25939C3.78626 2.09355 3.56141 2.00027 3.32688 2H2.88457C2.76726 2 2.65476 2.0466 2.57181 2.12955C2.48886 2.2125 2.44226 2.325 2.44226 2.44231C2.44226 2.55962 2.48886 2.67212 2.57181 2.75507C2.65476 2.83802 2.76726 2.88462 2.88457 2.88462H3.32688V6.42308H2.88457Z" fill="white"/>
<path d="M4.21154 11.4536C4.80286 11.1707 5.53846 10.8185 5.53846 9.96064C5.53846 9.49141 5.35206 9.0414 5.02027 8.7096C4.68847 8.37781 4.23846 8.19141 3.76923 8.19141C3.3 8.19141 2.84999 8.37781 2.5182 8.7096C2.1864 9.0414 2 9.49141 2 9.96064C2 10.0779 2.0466 10.1904 2.12955 10.2734C2.2125 10.3563 2.325 10.4029 2.44231 10.4029C2.55961 10.4029 2.67212 10.3563 2.75507 10.2734C2.83802 10.1904 2.88462 10.0779 2.88462 9.96064C2.88462 9.72602 2.97782 9.50102 3.14371 9.33512C3.30961 9.16922 3.53462 9.07602 3.76923 9.07602C4.00385 9.07602 4.22885 9.16922 4.39475 9.33512C4.56065 9.50102 4.65385 9.72602 4.65385 9.96064C4.65385 10.2341 4.41542 10.3755 3.8297 10.6558C3.05739 11.0256 2 11.532 2 13.0568C1.99998 13.1149 2.01142 13.1724 2.03364 13.2261C2.05586 13.2797 2.08844 13.3285 2.12952 13.3696C2.17059 13.4107 2.21936 13.4432 2.27303 13.4655C2.3267 13.4877 2.38422 13.4991 2.44231 13.4991H5.09615C5.21346 13.4991 5.32596 13.4525 5.40891 13.3696C5.49186 13.2866 5.53846 13.1741 5.53846 13.0568C5.53846 12.9395 5.49186 12.827 5.40891 12.744C5.32596 12.6611 5.21346 12.6145 5.09615 12.6145H2.93645C3.09843 11.9869 3.62194 11.7361 4.21154 11.4536Z" fill="white"/>
</svg>
