<svg width="20" height="20" viewBox="0 0 20 20" fill="none" xmlns="http://www.w3.org/2000/svg">
<path d="M14.375 5.75C15.6867 5.75 16.75 4.68668 16.75 3.375C16.75 2.06332 15.6867 1 14.375 1C13.0633 1 12 2.06332 12 3.375C12 4.68668 13.0633 5.75 14.375 5.75Z" fill="#11315D" fill-opacity="0.1" stroke="#11315D" stroke-linecap="round" stroke-linejoin="round"/>
<path d="M17.5 6.5L17 6" stroke="#11315D" stroke-linecap="round" stroke-linejoin="round"/>
<path d="M7.50016 8.33333C8.42064 8.33333 9.16683 7.58714 9.16683 6.66667C9.16683 5.74619 8.42064 5 7.50016 5C6.57969 5 5.8335 5.74619 5.8335 6.66667C5.8335 7.58714 6.57969 8.33333 7.50016 8.33333Z" stroke="#11315D" stroke-linecap="round" stroke-linejoin="round"/>
<path d="M10.8337 1.66797H7.50033C3.33366 1.66797 1.66699 3.33464 1.66699 7.5013V12.5013C1.66699 16.668 3.33366 18.3346 7.50033 18.3346H12.5003C16.667 18.3346 18.3337 16.668 18.3337 12.5013V8.33464" fill="#11315D" fill-opacity="0.1"/>
<path d="M10.8337 1.66797H7.50033C3.33366 1.66797 1.66699 3.33464 1.66699 7.5013V12.5013C1.66699 16.668 3.33366 18.3346 7.50033 18.3346H12.5003C16.667 18.3346 18.3337 16.668 18.3337 12.5013V8.33464" stroke="#11315D" stroke-linecap="round" stroke-linejoin="round"/>
<path d="M2.2251 15.7898L6.33343 13.0315C6.99176 12.5898 7.94176 12.6398 8.53343 13.1482L8.80843 13.3898C9.45843 13.9482 10.5084 13.9482 11.1584 13.3898L14.6251 10.4148C15.2751 9.85651 16.3251 9.85651 16.9751 10.4148L18.3334 11.5815" stroke="#11315D" stroke-linecap="round" stroke-linejoin="round"/>
</svg>
