<svg width="20" height="20" viewBox="0 0 20 20" fill="none" xmlns="http://www.w3.org/2000/svg">
<path d="M5.09149 14.5825C3.24982 12.8575 1.6665 10.3992 1.6665 7.23252C1.6665 4.65752 3.7415 2.57422 6.29984 2.57422C7.8165 2.57422 9.15817 3.30754 9.99984 4.44088C10.8415 3.30754 12.1915 2.57422 13.6998 2.57422C14.6582 2.57422 15.5498 2.86585 16.2915 3.37419" fill="#11315D" fill-opacity="0.1"/>
<path d="M5.09149 14.5825C3.24982 12.8575 1.6665 10.3992 1.6665 7.23252C1.6665 4.65752 3.7415 2.57422 6.29984 2.57422C7.8165 2.57422 9.15817 3.30754 9.99984 4.44088C10.8415 3.30754 12.1915 2.57422 13.6998 2.57422C14.6582 2.57422 15.5498 2.86585 16.2915 3.37419" stroke="#11315D" stroke-linecap="round" stroke-linejoin="round"/>
<path d="M18.1166 5.83203C18.2582 6.2737 18.3333 6.7487 18.3333 7.24037C18.3333 13.0737 12.9332 16.5154 10.5166 17.3487C10.2332 17.4487 9.76659 17.4487 9.48326 17.3487C8.94159 17.1654 8.25827 16.8487 7.5166 16.407" fill="#11315D" fill-opacity="0.1"/>
<path d="M18.1166 5.83203C18.2582 6.2737 18.3333 6.7487 18.3333 7.24037C18.3333 13.0737 12.9332 16.5154 10.5166 17.3487C10.2332 17.4487 9.76659 17.4487 9.48326 17.3487C8.94159 17.1654 8.25827 16.8487 7.5166 16.407" stroke="#11315D" stroke-linecap="round" stroke-linejoin="round"/>
<path d="M18.3332 1.66797L1.6665 18.3346" stroke="#11315D" stroke-linecap="round" stroke-linejoin="round"/>
</svg>
