<svg width="16" height="16" viewBox="0 0 16 16" fill="none" xmlns="http://www.w3.org/2000/svg">
<path d="M5.90287 10.4843L3.60914 8.25764C3.54916 8.1987 3.47773 8.15191 3.39898 8.11997C3.32023 8.08803 3.23574 8.07159 3.1504 8.07159C3.06505 8.07159 2.98056 8.08803 2.90181 8.11997C2.82306 8.15191 2.75163 8.1987 2.69165 8.25764C2.63094 8.31586 2.58274 8.38521 2.54984 8.46165C2.51694 8.53809 2.5 8.62012 2.5 8.70297C2.5 8.78581 2.51694 8.86784 2.54984 8.94428C2.58274 9.02073 2.63094 9.09007 2.69165 9.1483L5.43757 11.8139C5.69316 12.062 6.10603 12.062 6.36162 11.8139L13.3083 5.07671C13.3691 5.01848 13.4173 4.94914 13.4502 4.87269C13.4831 4.79625 13.5 4.71422 13.5 4.63138C13.5 4.54853 13.4831 4.46651 13.4502 4.39006C13.4173 4.31362 13.3691 4.24427 13.3083 4.18605C13.2484 4.12711 13.1769 4.08032 13.0982 4.04838C13.0194 4.01644 12.9349 4 12.8496 4C12.7643 4 12.6798 4.01644 12.601 4.04838C12.5223 4.08032 12.4508 4.12711 12.3909 4.18605L5.90287 10.4843Z" fill="white"/>
</svg>
